# xmcd CD database file
#
# Track frame offsets:
#	150
#	19782
#	39607
#	57220
#	76632
#	92357
#	121375
#	141587
#	155345
#	171210
#	192100
#
# Disc length: 2854 seconds
#
# Revision: 1
# Processed by: cddbd v1.5.2PL0 Copyright (c) Steve Scherf et al.
# Submitted via: CDex 1.70beta3
#
DISCID=840b240b
DTITLE=折原みと - フレンド・スクールデイズ・コレクション
DYEAR=1994
DGENRE=Anime
TTITLE0=紗浚雪絵/たった一人のあなたへ～B-KIDSでいこう！～
TTITLE1=藤野まなみ／宮下英敏/きっとFLY－DAY～おもいっきしFLY-DAY～
TTITLE2=折原みと/瞳の中で～いつも君を見てた～
TTITLE3=紗浚雪絵/BRAND NEW DAYS～制服の時を過ぎても～
TTITLE4=藤野まなみ/ハイスクール★ヒッピーズ宣言～ハイスクール★ヒッピーズ宣言～
TTITLE5=おりはら美都/女のまんが道
TTITLE6=紗浚雪絵/海に降る雪～君がここにいる～
TTITLE7=小林孝至/Find Out!～いいコでなんか　いられない！～
TTITLE8=紗浚雪絵/K.～With you～
TTITLE9=折原みと/LOVE～「LOVE」－君だけの物語－～
TTITLE10=小林孝至/中3の夏～中3の夏～
EXTD=YEAR: 1994
EXTT0=
EXTT1=
EXTT2=
EXTT3=
EXTT4=
EXTT5=
EXTT6=
EXTT7=
EXTT8=
EXTT9=
EXTT10=
PLAYORDER=
